<?xml version="1.0" encoding="UTF-8" standalone="no"?>
<!DOCTYPE svg PUBLIC "-//W3C//DTD SVG 1.1//EN" "http://www.w3.org/Graphics/SVG/1.1/DTD/svg11.dtd">
<svg width="100%" height="100%" viewBox="0 0 2470 287" version="1.1" xmlns="http://www.w3.org/2000/svg" xmlns:xlink="http://www.w3.org/1999/xlink" xml:space="preserve" xmlns:serif="http://www.serif.com/" style="fill-rule:evenodd;clip-rule:evenodd;stroke-linejoin:round;stroke-miterlimit:2;">
    <g transform="matrix(1,0,0,1,-0.00208333,-0.000416667)">
        <g transform="matrix(4.16667,0,0,4.16667,0,0)">
            <g transform="matrix(1,0,0,1,18.3545,25.2999)">
                <path d="M0,21.33C4.526,21.33 6.883,17.176 6.883,10.665C6.883,4.154 4.526,-0.001 0,-0.001C-4.651,-0.001 -6.883,4.154 -6.883,10.665C-6.883,17.176 -4.651,21.33 0,21.33M0,-9.054C9.487,-9.054 18.292,-1.861 18.292,10.665C18.292,23.19 9.487,30.384 0,30.384C-9.549,30.384 -18.354,23.128 -18.354,10.665C-18.354,-1.799 -9.549,-9.054 0,-9.054" style="fill:rgb(0,146,131);fill-rule:nonzero;"/>
            </g>
        </g>
        <g transform="matrix(4.16667,0,0,4.16667,0,0)">
            <g transform="matrix(1,0,0,1,61.3882,38.3834)">
                <path d="M0,8.185C3.845,8.185 7.007,4.836 7.007,-2.853C7.007,-9.612 4.961,-13.022 0.496,-13.022C-1.798,-13.022 -3.721,-11.968 -5.953,-9.612L-5.953,5.766C-4.03,7.565 -1.86,8.185 0,8.185M-5.953,19.346L-5.953,30.322L-17.114,30.322L-17.114,-21.208L-7.999,-21.208L-7.255,-17.487L-6.945,-17.487C-3.968,-20.153 -0.186,-22.137 3.721,-22.137C12.836,-22.137 18.417,-14.634 18.417,-3.039C18.417,9.859 10.666,17.3 2.542,17.3C-0.744,17.3 -3.783,15.873 -6.387,13.331L-5.953,19.346Z" style="fill:rgb(0,146,131);fill-rule:nonzero;"/>
            </g>
        </g>
        <g transform="matrix(4.16667,0,0,4.16667,0,0)">
            <g transform="matrix(1,0,0,1,109.755,39.8716)">
                <path d="M0,-7.814C0,-12.154 -1.798,-15.193 -6.325,-15.193C-9.797,-15.193 -12.836,-12.836 -13.58,-7.814L0,-7.814ZM-6.511,-23.626C4.154,-23.626 9.487,-15.813 9.487,-5.582C9.487,-3.597 9.239,-1.798 9.053,-0.869L-13.456,-0.869C-12.464,4.836 -8.681,7.317 -3.659,7.317C-0.868,7.317 1.736,6.51 4.464,4.836L8.185,11.595C4.34,14.261 -0.682,15.812 -5.147,15.812C-15.937,15.812 -24.184,8.556 -24.184,-3.907C-24.246,-16.123 -15.564,-23.626 -6.511,-23.626" style="fill:rgb(0,146,131);fill-rule:nonzero;"/>
            </g>
        </g>
        <g transform="matrix(4.16667,0,0,4.16667,0,0)">
            <g transform="matrix(1,0,0,1,126.931,53.8843)">
                <path d="M0,-36.77L9.115,-36.77L9.859,-31.996L10.169,-31.996C13.332,-35.034 17.114,-37.701 22.199,-37.701C30.384,-37.701 33.856,-31.934 33.856,-22.508L33.856,0.869L22.695,0.869L22.695,-21.02C22.695,-26.477 21.269,-28.151 18.044,-28.151C15.254,-28.151 13.518,-26.849 11.1,-24.493L11.1,0.931L-0.062,0.931L0,-36.77Z" style="fill:rgb(0,146,131);fill-rule:nonzero;"/>
            </g>
        </g>
        <g transform="matrix(4.16667,0,0,4.16667,0,0)">
            <g transform="matrix(1,0,0,1,186.583,10.7274)">
                <path d="M0,35.841C2.418,35.841 4.341,34.91 6.139,32.43L6.139,17.052C4.155,15.254 1.984,14.634 -0.062,14.634C-3.596,14.634 -6.821,17.983 -6.821,25.113C-6.821,32.492 -4.278,35.841 0,35.841M-2.604,5.519C1.55,5.519 4.093,7.007 6.635,9.487L6.201,3.72L6.201,-9.115L17.362,-9.115L17.362,44.026L8.247,44.026L7.503,40.305L7.193,40.305C4.527,42.972 0.806,44.956 -2.791,44.956C-12.092,44.956 -18.168,37.515 -18.168,25.237C-18.23,12.959 -10.604,5.519 -2.604,5.519" style="fill:rgb(0,146,131);fill-rule:nonzero;"/>
            </g>
        </g>
        <g transform="matrix(4.16667,0,0,4.16667,0,0)">
            <g transform="matrix(1,0,0,1,227.323,24.928)">
                <path d="M0,22.074C2.604,22.074 4.216,20.834 6.201,18.912L6.201,12.339C-1.736,13.393 -4.341,15.687 -4.341,18.54C-4.341,20.958 -2.667,22.074 0,22.074M6.201,5.641C5.953,2.294 4.278,0.185 0.31,0.185C-2.853,0.185 -6.077,1.487 -9.673,3.595L-13.642,-3.783C-8.867,-6.636 -3.473,-8.682 2.418,-8.682C12.029,-8.682 17.362,-3.226 17.362,8.308L17.362,29.825L8.247,29.825L7.441,25.98L7.193,25.98C4.03,28.771 0.434,30.756 -3.783,30.756C-10.604,30.756 -14.944,25.732 -14.944,19.408C-14.944,11.47 -8.681,7.13 6.201,5.641" style="fill:rgb(0,146,131);fill-rule:nonzero;"/>
            </g>
        </g>
        <g transform="matrix(4.16667,0,0,4.16667,0,0)">
            <g transform="matrix(1,0,0,1,255.723,37.0804)">
                <path d="M0,-11.223L-5.147,-11.223L-5.147,-19.47L0.62,-19.905L1.922,-29.888L11.161,-29.888L11.161,-19.905L20.152,-19.905L20.152,-11.161L11.161,-11.161L11.161,3.907C11.161,8.124 13.083,9.922 15.998,9.922C17.238,9.922 18.602,9.549 19.532,9.177L21.269,17.3C19.284,17.921 16.556,18.665 12.897,18.665C3.596,18.665 -0.062,12.836 -0.062,4.092L-0.062,-11.223L0,-11.223Z" style="fill:rgb(0,146,131);fill-rule:nonzero;"/>
            </g>
        </g>
        <g transform="matrix(4.16667,0,0,4.16667,0,0)">
            <g transform="matrix(1,0,0,1,295.904,24.928)">
                <path d="M0,22.074C2.604,22.074 4.279,20.834 6.201,18.912L6.201,12.339C-1.736,13.393 -4.34,15.687 -4.34,18.54C-4.34,20.958 -2.667,22.074 0,22.074M6.201,5.641C5.953,2.294 4.279,0.185 0.31,0.185C-2.853,0.185 -6.077,1.487 -9.673,3.595L-13.642,-3.783C-8.867,-6.636 -3.473,-8.682 2.418,-8.682C12.029,-8.682 17.363,-3.226 17.363,8.308L17.363,29.825L8.248,29.825L7.441,25.98L7.193,25.98C4.031,28.771 0.434,30.756 -3.783,30.756C-10.604,30.756 -14.944,25.732 -14.944,19.408C-14.944,11.47 -8.619,7.13 6.201,5.641" style="fill:rgb(0,146,131);fill-rule:nonzero;"/>
            </g>
        </g>
        <g transform="matrix(4.16667,0,0,4.16667,0,0)">
            <g transform="matrix(-1,0,0,1,329.263,55.6834)">
                <path d="M-0.002,-14.076C-3.846,-14.076 -6.76,-11.038 -6.76,-7.008C-6.76,-3.039 -3.908,0 -0.002,0C3.844,0 6.758,-3.039 6.758,-7.008C6.758,-11.038 3.844,-14.076 -0.002,-14.076" style="fill:rgb(2,1,2);fill-rule:nonzero;"/>
            </g>
        </g>
        <g transform="matrix(4.16667,0,0,4.16667,0,0)">
            <g transform="matrix(1,0,0,1,347.248,28.6478)">
                <path d="M0,14.82C3.41,17.424 6.51,18.789 9.672,18.789C13.021,18.789 14.447,17.549 14.447,15.626C14.447,13.145 10.664,11.967 6.82,10.479C2.293,8.743 -3.102,5.642 -3.102,-0.558C-3.102,-7.503 2.604,-12.34 11.285,-12.34C17.051,-12.34 21.268,-9.984 24.555,-7.565L19.531,-0.868C16.803,-2.853 14.199,-4.031 11.596,-4.031C8.742,-4.031 7.379,-2.977 7.379,-1.054C7.379,1.364 10.852,2.294 14.758,3.72C19.531,5.457 24.926,8.123 24.926,15.006C24.926,21.827 19.531,27.16 9.486,27.16C4.588,27.16 -1.117,25.051 -4.898,21.951L0,14.82Z" style="fill:rgb(2,1,2);fill-rule:nonzero;"/>
            </g>
        </g>
        <g transform="matrix(4.16667,0,0,4.16667,0,0)">
            <g transform="matrix(1,0,0,1,376.019,54.6913)">
                <path d="M0,-37.577L11.1,-37.577L14.758,-20.153C15.377,-16.432 15.813,-12.774 16.432,-8.991L16.742,-8.991C17.424,-12.774 18.045,-16.556 18.912,-20.153L23.066,-37.577L32.678,-37.577L36.895,-20.153C37.824,-16.432 38.506,-12.774 39.25,-8.991L39.561,-8.991C40.242,-12.774 40.615,-16.432 41.297,-20.153L44.832,-37.577L55.125,-37.577L46.072,0L33.051,0L29.639,-15.007C28.896,-18.478 28.275,-21.951 27.594,-25.981L27.283,-25.981C26.602,-21.951 26.043,-18.478 25.361,-15.007L22.012,0L9.301,0L0,-37.577Z" style="fill:rgb(2,1,2);fill-rule:nonzero;"/>
            </g>
        </g>
        <g transform="matrix(4.16667,0,0,4.16667,0,0)">
            <g transform="matrix(1,0,0,1,0,-14.0139)">
                <path d="M437.964,31.128L449.126,31.128L449.126,68.705L437.964,68.705L437.964,31.128ZM437.035,19.781C437.035,16.37 439.763,14.014 443.484,14.014C447.267,14.014 449.933,16.37 449.933,19.781C449.933,23.191 447.267,25.609 443.484,25.609C439.763,25.61 437.035,23.191 437.035,19.781" style="fill:rgb(2,1,2);fill-rule:nonzero;"/>
            </g>
        </g>
        <g transform="matrix(4.16667,0,0,4.16667,0,0)">
            <g transform="matrix(1,0,0,1,460.537,28.6478)">
                <path d="M0,14.82C3.41,17.424 6.51,18.789 9.672,18.789C13.021,18.789 14.447,17.549 14.447,15.626C14.447,13.145 10.664,11.967 6.82,10.479C2.293,8.743 -3.102,5.642 -3.102,-0.558C-3.102,-7.503 2.604,-12.34 11.285,-12.34C17.051,-12.34 21.268,-9.984 24.555,-7.565L19.531,-0.868C16.803,-2.853 14.199,-4.031 11.596,-4.031C8.742,-4.031 7.379,-2.977 7.379,-1.054C7.379,1.364 10.852,2.294 14.758,3.72C19.531,5.457 24.928,8.123 24.928,15.006C24.928,21.827 19.531,27.16 9.486,27.16C4.588,27.16 -1.117,25.051 -4.898,21.951L0,14.82Z" style="fill:rgb(2,1,2);fill-rule:nonzero;"/>
            </g>
        </g>
        <g transform="matrix(4.16667,0,0,4.16667,0,0)">
            <g transform="matrix(1,0,0,1,494.144,28.6478)">
                <path d="M0,14.82C3.41,17.424 6.512,18.789 9.674,18.789C13.021,18.789 14.449,17.549 14.449,15.626C14.449,13.145 10.666,11.967 6.822,10.479C2.295,8.743 -3.1,5.642 -3.1,-0.558C-3.1,-7.503 2.605,-12.34 11.285,-12.34C17.053,-12.34 21.27,-9.984 24.557,-7.565L19.533,-0.868C16.805,-2.853 14.201,-4.031 11.596,-4.031C8.744,-4.031 7.379,-2.977 7.379,-1.054C7.379,1.364 10.852,2.294 14.758,3.72C19.533,5.457 24.928,8.123 24.928,15.006C24.928,21.827 19.533,27.16 9.488,27.16C4.527,27.16 -1.115,25.051 -4.898,21.951L0,14.82Z" style="fill:rgb(2,1,2);fill-rule:nonzero;"/>
            </g>
        </g>
        <g transform="matrix(4.16667,0,0,4.16667,0,0)">
            <g transform="matrix(1,0,0,1,550.882,36.9575)">
                <path d="M0,-21.146C7.75,-26.726 18.664,-25.982 25.672,-19.038C32.678,-12.031 33.361,-1.179 27.779,6.634L35.221,14.075C39.561,8.68 41.918,2.108 41.918,-4.9C41.918,-13.023 38.756,-20.65 33.051,-26.354C27.346,-32.059 19.719,-35.221 11.596,-35.221C4.588,-35.221 -2.047,-32.866 -7.379,-28.525L0,-21.146Z" style="fill:rgb(0,146,131);fill-rule:nonzero;"/>
            </g>
        </g>
        <g transform="matrix(4.16667,0,0,4.16667,0,0)">
            <g transform="matrix(1,0,0,1,573.763,27.2218)">
                <path d="M0,21.206C-7.75,26.477 -18.479,25.733 -25.299,18.851C-32.182,11.967 -32.926,1.302 -27.656,-6.449L-35.096,-13.891C-39.252,-8.558 -41.545,-2.108 -41.545,4.774C-41.545,12.897 -38.383,20.524 -32.678,26.229C-26.973,31.934 -19.346,35.097 -11.223,35.097C-4.34,35.097 2.107,32.802 7.441,28.647L0,21.206Z" style="fill:rgb(2,1,2);fill-rule:nonzero;"/>
            </g>
        </g>
    </g>
</svg>
