<?xml version="1.0" encoding="UTF-8" standalone="no"?>
<!DOCTYPE svg PUBLIC "-//W3C//DTD SVG 1.1//EN" "http://www.w3.org/Graphics/SVG/1.1/DTD/svg11.dtd">
<svg width="100%" height="100%" viewBox="0 0 199 156" version="1.1" xmlns="http://www.w3.org/2000/svg" xmlns:xlink="http://www.w3.org/1999/xlink" xml:space="preserve" xmlns:serif="http://www.serif.com/" style="fill-rule:evenodd;clip-rule:evenodd;stroke-linecap:round;stroke-linejoin:round;stroke-miterlimit:1.5;">
    <g transform="matrix(1,0,0,1,-1633.68,-1124.99)">
        <g>
            <g transform="matrix(0.236589,0,0,0.236589,1130.45,1155.59)">
                <g>
                    <g>
                        <g transform="matrix(4.16667,0,0,4.16667,2295.34,153.99)">
                            <g>
                                <g>
                                    <path d="M0,-21.146C7.75,-26.726 18.664,-25.982 25.672,-19.038C32.678,-12.031 33.361,-1.179 27.779,6.634L35.221,14.075C39.561,8.68 41.918,2.108 41.918,-4.9C41.918,-13.023 38.756,-20.65 33.051,-26.354C27.346,-32.059 19.719,-35.221 11.596,-35.221C4.588,-35.221 -2.047,-32.866 -7.379,-28.525L0,-21.146Z" style="fill:rgb(0,146,131);fill-rule:nonzero;"/>
                                </g>
                            </g>
                        </g>
                        <g transform="matrix(4.16667,0,0,4.16667,2390.68,113.424)">
                            <g>
                                <g>
                                    <path d="M0,21.206C-7.75,26.477 -18.479,25.733 -25.299,18.851C-32.182,11.967 -32.926,1.302 -27.656,-6.449L-35.096,-13.891C-39.252,-8.558 -41.545,-2.108 -41.545,4.774C-41.545,12.897 -38.383,20.524 -32.678,26.229C-26.973,31.934 -19.346,35.097 -11.223,35.097C-4.34,35.097 2.107,32.802 7.441,28.647L0,21.206Z" style="fill:rgb(2,1,2);fill-rule:nonzero;"/>
                                </g>
                            </g>
                        </g>
                    </g>
                </g>
            </g>
            <g transform="matrix(0.0789102,0,0,0.0789102,1560.69,1053.99)">
                <circle cx="1575.72" cy="1688.48" r="536.977" style="fill:none;stroke:black;stroke-width:106.11px;"/>
            </g>
            <g transform="matrix(0.0789102,0,0,0.0789102,1657.38,1052.35)">
                <circle cx="1575.72" cy="1688.48" r="536.977" style="fill:none;stroke:black;stroke-width:106.11px;"/>
            </g>
            <g transform="matrix(0.074426,0,0,0.074426,1605.57,1099.08)">
                <g transform="matrix(1.44046,0,0,27.7786,-1025.32,-36871.5)">
                    <g>
                        <path d="M2281.14,1365.92L2352.16,1365.87C2352.81,1368 2355.9,1370.22 2347.87,1372.06C2340.97,1373.65 2326.68,1375 2300.7,1375.99C2276.07,1376.92 2239.28,1377.56 2183.39,1377.52L2184.35,1373.83C2219.48,1373.86 2243.24,1373.61 2258.73,1373.02C2273.94,1372.44 2278.57,1371.54 2280.85,1370.55C2284.18,1369.12 2281.62,1367.49 2281.14,1365.92Z"/>
                    </g>
                </g>
                <g transform="matrix(1.04389,0,0,1.10576,276.06,-250.869)">
                    <path d="M1999.3,1107.36L1999.3,1228.76C1999.3,1270.49 1963.4,1304.38 1919.19,1304.38L1794.26,1304.38C1750.05,1304.38 1714.15,1270.49 1714.15,1228.76L1714.15,1107.36C1714.15,1065.62 1750.05,1031.74 1794.26,1031.74L1919.19,1031.74C1963.4,1031.74 1999.3,1065.62 1999.3,1107.36Z"/>
                </g>
            </g>
            <g transform="matrix(0.074426,0,0,0.074426,1629.92,1099.08)">
                <g transform="matrix(1.44046,0,0,27.7786,-1025.32,-36871.5)">
                    <g>
                        <path d="M2281.14,1365.92L2352.16,1365.87C2352.81,1368 2355.9,1370.22 2347.87,1372.06C2340.97,1373.65 2326.68,1375 2300.7,1375.99C2276.07,1376.92 2239.28,1377.56 2183.39,1377.52L2184.35,1373.83C2219.48,1373.86 2243.24,1373.61 2258.73,1373.02C2273.94,1372.44 2278.57,1371.54 2280.85,1370.55C2284.18,1369.12 2281.62,1367.49 2281.14,1365.92Z"/>
                    </g>
                </g>
                <g transform="matrix(1.04389,0,0,1.10576,276.06,-250.869)">
                    <path d="M1999.3,1107.36L1999.3,1228.76C1999.3,1270.49 1963.4,1304.38 1919.19,1304.38L1794.26,1304.38C1750.05,1304.38 1714.15,1270.49 1714.15,1228.76L1714.15,1107.36C1714.15,1065.62 1750.05,1031.74 1794.26,1031.74L1919.19,1031.74C1963.4,1031.74 1999.3,1065.62 1999.3,1107.36Z"/>
                </g>
            </g>
            <g transform="matrix(0.0789102,0,0,0.0789102,1560.69,1053.99)">
                <circle cx="1575.72" cy="1688.48" r="536.977" style="fill:none;stroke:black;stroke-width:106.11px;"/>
            </g>
            <g transform="matrix(0.0789102,0,0,0.0789102,1560.69,1053.99)">
                <circle cx="1575.72" cy="1688.48" r="536.977" style="fill:none;stroke:black;stroke-width:106.11px;"/>
            </g>
            <g transform="matrix(0.717958,0,0,0.717958,1756.85,1262.56)">
                <text x="0px" y="0px" style="font-family:'NotoSans-Bold', 'Noto Sans', sans-serif;font-weight:700;font-size:50px;">BY</text>
            </g>
        </g>
    </g>
</svg>
