<?xml version="1.0" encoding="UTF-8" standalone="no"?>
<!DOCTYPE svg PUBLIC "-//W3C//DTD SVG 1.1//EN" "http://www.w3.org/Graphics/SVG/1.1/DTD/svg11.dtd">
<svg width="100%" height="100%" viewBox="0 0 226 156" version="1.1" xmlns="http://www.w3.org/2000/svg" xmlns:xlink="http://www.w3.org/1999/xlink" xml:space="preserve" xmlns:serif="http://www.serif.com/" style="fill-rule:evenodd;clip-rule:evenodd;stroke-linecap:round;stroke-linejoin:round;stroke-miterlimit:1.5;">
    <g transform="matrix(1,0,0,1,-1622.31,-1121.34)">
        <g transform="matrix(0.717958,0,0,0.717958,1737.65,1271.74)">
            <g transform="matrix(50,0,0,50,0,0)">
                <path d="M0.527,-0L0.475,-0.17L0.215,-0.17L0.163,-0L0,-0L0.252,-0.717L0.437,-0.717L0.69,-0L0.527,-0ZM0.387,-0.463C0.384,-0.474 0.363,-0.541 0.358,-0.559C0.353,-0.577 0.348,-0.593 0.345,-0.606C0.342,-0.593 0.337,-0.576 0.332,-0.557C0.326,-0.537 0.321,-0.518 0.316,-0.501C0.311,-0.483 0.307,-0.47 0.304,-0.463L0.253,-0.297L0.439,-0.297L0.387,-0.463Z" style="fill-rule:nonzero;"/>
            </g>
            <g transform="matrix(50,0,0,50,34.5,0)">
                <path d="M0.511,-0.198C0.511,-0.156 0.501,-0.119 0.48,-0.088C0.459,-0.057 0.43,-0.033 0.391,-0.016C0.352,0.002 0.304,0.01 0.248,0.01C0.223,0.01 0.199,0.008 0.176,0.005C0.152,0.002 0.129,-0.003 0.108,-0.01C0.086,-0.016 0.065,-0.024 0.046,-0.033L0.046,-0.174C0.08,-0.159 0.115,-0.146 0.152,-0.134C0.188,-0.121 0.224,-0.115 0.26,-0.115C0.285,-0.115 0.305,-0.118 0.32,-0.125C0.335,-0.132 0.345,-0.141 0.353,-0.152C0.36,-0.163 0.363,-0.176 0.363,-0.191C0.363,-0.209 0.357,-0.224 0.345,-0.237C0.332,-0.25 0.316,-0.262 0.295,-0.273C0.274,-0.284 0.251,-0.295 0.224,-0.308C0.207,-0.316 0.189,-0.326 0.17,-0.337C0.151,-0.347 0.132,-0.361 0.115,-0.378C0.097,-0.394 0.082,-0.414 0.071,-0.437C0.06,-0.46 0.054,-0.488 0.054,-0.521C0.054,-0.564 0.064,-0.6 0.084,-0.631C0.103,-0.661 0.131,-0.684 0.168,-0.7C0.204,-0.716 0.247,-0.724 0.296,-0.724C0.333,-0.724 0.369,-0.72 0.403,-0.711C0.436,-0.702 0.471,-0.69 0.508,-0.674L0.459,-0.556C0.426,-0.569 0.397,-0.58 0.371,-0.587C0.345,-0.594 0.318,-0.598 0.291,-0.598C0.272,-0.598 0.256,-0.595 0.243,-0.589C0.23,-0.583 0.22,-0.575 0.213,-0.564C0.206,-0.553 0.202,-0.541 0.202,-0.526C0.202,-0.509 0.207,-0.495 0.217,-0.484C0.227,-0.472 0.242,-0.461 0.262,-0.45C0.282,-0.439 0.307,-0.427 0.337,-0.412C0.374,-0.395 0.405,-0.377 0.431,-0.358C0.456,-0.339 0.476,-0.317 0.49,-0.292C0.504,-0.267 0.511,-0.235 0.511,-0.198Z" style="fill-rule:nonzero;"/>
            </g>
            <g transform="matrix(50,0,0,50,62.05,0)">
                <path d="M0.664,-0L0.492,-0L0.305,-0.301L0.241,-0.255L0.241,-0L0.09,-0L0.09,-0.714L0.241,-0.714L0.241,-0.387C0.251,-0.401 0.291,-0.457 0.301,-0.471L0.494,-0.714L0.662,-0.714L0.413,-0.398L0.664,-0Z" style="fill-rule:nonzero;"/>
            </g>
        </g>
        <g transform="matrix(-0.684945,0.750871,-0.769041,-0.70152,1810.27,1158.35)">
            <path d="M0,-31.129C17.181,-31.129 31.129,-17.181 31.129,0C31.129,17.181 17.181,31.129 0,31.129C-17.181,31.129 -31.129,17.181 -31.129,0C-31.129,-17.181 -17.181,-31.129 0,-31.129ZM11.791,-5.006C12.566,-5.697 12.964,-6.487 12.985,-7.378C13.006,-8.268 12.652,-9.102 11.925,-9.881C11.157,-10.703 10.318,-11.145 9.408,-11.206C8.498,-11.268 7.656,-10.953 6.88,-10.263C6.105,-9.572 5.713,-8.786 5.703,-7.906C5.693,-7.026 6.073,-6.175 6.841,-5.353C7.568,-4.574 8.381,-4.149 9.28,-4.078C10.179,-4.006 11.016,-4.316 11.791,-5.006ZM6.466,-1.453L3.101,-5.054C2.171,-4.225 1.265,-3.696 0.384,-3.466C-0.497,-3.236 -1.367,-3.135 -2.225,-3.163C-3.083,-3.192 -3.954,-3.288 -4.838,-3.452C-5.722,-3.616 -6.626,-3.682 -7.551,-3.651C-8.476,-3.62 -9.445,-3.42 -10.46,-3.051C-11.475,-2.682 -12.548,-1.994 -13.678,-0.988C-15.383,0.531 -16.205,2.313 -16.142,4.357C-16.079,6.401 -15.097,8.44 -13.198,10.473C-11.783,11.987 -10.387,13.112 -9.01,13.847C-7.634,14.583 -6.273,15.105 -4.929,15.414L-3.255,10.95C-3.717,10.847 -4.209,10.7 -4.731,10.511C-5.252,10.322 -5.767,10.097 -6.275,9.836C-6.783,9.574 -7.257,9.284 -7.698,8.963C-8.14,8.643 -8.522,8.31 -8.845,7.964C-9.856,6.882 -10.325,5.924 -10.254,5.087C-10.183,4.251 -9.76,3.488 -8.984,2.797C-8.386,2.265 -7.74,1.947 -7.045,1.843C-6.35,1.739 -5.607,1.721 -4.814,1.788C-4.021,1.854 -3.181,1.938 -2.295,2.04C-1.408,2.142 -0.494,2.121 0.447,1.977C1.387,1.832 2.363,1.508 3.374,1.004C4.384,0.501 5.415,-0.318 6.466,-1.453Z"/>
        </g>
        <g transform="matrix(-0.684945,0.750871,-0.769041,-0.70152,1810.27,1158.35)">
            <path d="M0,-31.129C17.181,-31.129 31.129,-17.181 31.129,0C31.129,17.181 17.181,31.129 0,31.129C-17.181,31.129 -31.129,17.181 -31.129,0C-31.129,-17.181 -17.181,-31.129 0,-31.129ZM11.791,-5.006C12.566,-5.697 12.964,-6.487 12.985,-7.378C13.006,-8.268 12.652,-9.102 11.925,-9.881C11.157,-10.703 10.318,-11.145 9.408,-11.206C8.498,-11.268 7.656,-10.953 6.88,-10.263C6.105,-9.572 5.713,-8.786 5.703,-7.906C5.693,-7.026 6.073,-6.175 6.841,-5.353C7.568,-4.574 8.381,-4.149 9.28,-4.078C10.179,-4.006 11.016,-4.316 11.791,-5.006ZM6.466,-1.453L3.101,-5.054C2.171,-4.225 1.265,-3.696 0.384,-3.466C-0.497,-3.236 -1.367,-3.135 -2.225,-3.163C-3.083,-3.192 -3.954,-3.288 -4.838,-3.452C-5.722,-3.616 -6.626,-3.682 -7.551,-3.651C-8.476,-3.62 -9.445,-3.42 -10.46,-3.051C-11.475,-2.682 -12.548,-1.994 -13.678,-0.988C-15.383,0.531 -16.205,2.313 -16.142,4.357C-16.079,6.401 -15.097,8.44 -13.198,10.473C-11.783,11.987 -10.387,13.112 -9.01,13.847C-7.634,14.583 -6.273,15.105 -4.929,15.414L-3.255,10.95C-3.717,10.847 -4.209,10.7 -4.731,10.511C-5.252,10.322 -5.767,10.097 -6.275,9.836C-6.783,9.574 -7.257,9.284 -7.698,8.963C-8.14,8.643 -8.522,8.31 -8.845,7.964C-9.856,6.882 -10.325,5.924 -10.254,5.087C-10.183,4.251 -9.76,3.488 -8.984,2.797C-8.386,2.265 -7.74,1.947 -7.045,1.843C-6.35,1.739 -5.607,1.721 -4.814,1.788C-4.021,1.854 -3.181,1.938 -2.295,2.04C-1.408,2.142 -0.494,2.121 0.447,1.977C1.387,1.832 2.363,1.508 3.374,1.004C4.384,0.501 5.415,-0.318 6.466,-1.453Z"/>
        </g>
        <g transform="matrix(1,0,0,1,49.069,0)">
            <g transform="matrix(0.236589,0,0,0.236589,1069.89,1165.12)">
                <g>
                    <g>
                        <g transform="matrix(4.16667,0,0,4.16667,2295.34,153.99)">
                            <g>
                                <g>
                                    <path d="M0,-21.146C7.75,-26.726 18.664,-25.982 25.672,-19.038C32.678,-12.031 33.361,-1.179 27.779,6.634L35.221,14.075C39.561,8.68 41.918,2.108 41.918,-4.9C41.918,-13.023 38.756,-20.65 33.051,-26.354C27.346,-32.059 19.719,-35.221 11.596,-35.221C4.588,-35.221 -2.047,-32.866 -7.379,-28.525L0,-21.146Z" style="fill:rgb(0,146,131);fill-rule:nonzero;"/>
                                </g>
                            </g>
                        </g>
                        <g transform="matrix(4.16667,0,0,4.16667,2390.68,113.424)">
                            <g>
                                <g>
                                    <path d="M0,21.206C-7.75,26.477 -18.479,25.733 -25.299,18.851C-32.182,11.967 -32.926,1.302 -27.656,-6.449L-35.096,-13.891C-39.252,-8.558 -41.545,-2.108 -41.545,4.774C-41.545,12.897 -38.383,20.524 -32.678,26.229C-26.973,31.934 -19.346,35.097 -11.223,35.097C-4.34,35.097 2.107,32.802 7.441,28.647L0,21.206Z" style="fill:rgb(2,1,2);fill-rule:nonzero;"/>
                                </g>
                            </g>
                        </g>
                    </g>
                </g>
            </g>
            <g transform="matrix(0.0789102,0,0,0.0789102,1500.13,1063.52)">
                <circle cx="1575.72" cy="1688.48" r="536.977" style="fill:none;stroke:black;stroke-width:106.11px;"/>
            </g>
        </g>
        <g transform="matrix(0.0789102,0,0,0.0789102,1549.2,1063.52)">
            <circle cx="1575.72" cy="1688.48" r="536.977" style="fill:none;stroke:black;stroke-width:106.11px;"/>
        </g>
        <g transform="matrix(0.0789102,0,0,0.0789102,1549.2,1063.52)">
            <circle cx="1575.72" cy="1688.48" r="536.977" style="fill:none;stroke:black;stroke-width:106.11px;"/>
        </g>
        <g transform="matrix(1,0,0,1,-48.6659,0)">
            <g transform="matrix(1.09772,0,0,1.09772,1805.5,1214.92)">
                <g transform="matrix(50,0,0,50,0,0)">
                    <path d="M0.344,0.126L0.341,-0.01C0.461,-0.033 0.521,-0.116 0.521,-0.206C0.521,-0.301 0.469,-0.343 0.355,-0.395L0.306,-0.417C0.243,-0.446 0.206,-0.468 0.206,-0.509C0.206,-0.546 0.233,-0.573 0.285,-0.573C0.341,-0.573 0.386,-0.545 0.415,-0.516L0.502,-0.619C0.494,-0.63 0.449,-0.68 0.353,-0.696L0.356,-0.824L0.234,-0.824L0.238,-0.696C0.134,-0.677 0.054,-0.605 0.054,-0.497C0.054,-0.417 0.097,-0.355 0.201,-0.309L0.261,-0.282C0.338,-0.247 0.37,-0.23 0.37,-0.19C0.37,-0.154 0.342,-0.128 0.285,-0.128C0.204,-0.128 0.139,-0.174 0.109,-0.202L0.026,-0.09C0.054,-0.065 0.116,-0.016 0.225,-0.005L0.222,0.126L0.344,0.126Z" style="fill-rule:nonzero;"/>
                </g>
            </g>
            <g transform="matrix(0.0789102,0,0,0.0789102,1696.17,1062.52)">
                <path d="M2073.95,1487.98C2098.94,1549.94 2112.7,1617.62 2112.7,1688.48C2112.7,1984.85 1872.09,2225.46 1575.72,2225.46C1279.35,2225.46 1038.74,1984.85 1038.74,1688.48C1038.74,1392.11 1279.35,1151.5 1575.72,1151.5C1701.12,1151.5 1816.54,1194.58 1907.97,1266.73L1907.97,1487.98L2073.95,1487.98Z" style="fill:none;stroke:black;stroke-width:106.11px;"/>
            </g>
        </g>
    </g>
</svg>
