<?xml version="1.0" encoding="UTF-8" standalone="no"?>
<!DOCTYPE svg PUBLIC "-//W3C//DTD SVG 1.1//EN" "http://www.w3.org/Graphics/SVG/1.1/DTD/svg11.dtd">
<svg width="100%" height="100%" viewBox="0 0 102 156" version="1.1" xmlns="http://www.w3.org/2000/svg" xmlns:xlink="http://www.w3.org/1999/xlink" xml:space="preserve" xmlns:serif="http://www.serif.com/" style="fill-rule:evenodd;clip-rule:evenodd;stroke-linecap:round;stroke-linejoin:round;stroke-miterlimit:1.5;">
    <g transform="matrix(1,0,0,1,-1573.47,-1121.34)">
        <g>
            <g transform="matrix(0.236589,0,0,0.236589,1069.89,1165.12)">
                <g>
                    <g>
                        <g transform="matrix(4.16667,0,0,4.16667,2295.34,153.99)">
                            <g>
                                <g>
                                    <path d="M0,-21.146C7.75,-26.726 18.664,-25.982 25.672,-19.038C32.678,-12.031 33.361,-1.179 27.779,6.634L35.221,14.075C39.561,8.68 41.918,2.108 41.918,-4.9C41.918,-13.023 38.756,-20.65 33.051,-26.354C27.346,-32.059 19.719,-35.221 11.596,-35.221C4.588,-35.221 -2.047,-32.866 -7.379,-28.525L0,-21.146Z" style="fill:rgb(0,146,131);fill-rule:nonzero;"/>
                                </g>
                            </g>
                        </g>
                        <g transform="matrix(4.16667,0,0,4.16667,2390.68,113.424)">
                            <g>
                                <g>
                                    <path d="M0,21.206C-7.75,26.477 -18.479,25.733 -25.299,18.851C-32.182,11.967 -32.926,1.302 -27.656,-6.449L-35.096,-13.891C-39.252,-8.558 -41.545,-2.108 -41.545,4.774C-41.545,12.897 -38.383,20.524 -32.678,26.229C-26.973,31.934 -19.346,35.097 -11.223,35.097C-4.34,35.097 2.107,32.802 7.441,28.647L0,21.206Z" style="fill:rgb(2,1,2);fill-rule:nonzero;"/>
                                </g>
                            </g>
                        </g>
                    </g>
                </g>
            </g>
            <g transform="matrix(0.0789102,0,0,0.0789102,1500.13,1063.52)">
                <circle cx="1575.72" cy="1688.48" r="536.977" style="fill:none;stroke:black;stroke-width:106.11px;"/>
            </g>
        </g>
    </g>
</svg>
